<svg xmlns="http://www.w3.org/2000/svg" width="430" height="430" fill="none" viewBox="0 0 430 430"><g clip-path="url(#oC889kKtRha)"><path fill="#557c99" d="M327.327 215.395c0 22.672-15.952 41.6-37.327 46.181h-6.728V345.4H290c67.402-5.06 120.464-61.302 120.464-130.005 0-68.662-53.108-124.879-120.464-129.995h-6.728v83.798H290c21.337 4.552 37.327 23.499 37.327 46.197"/><path fill="#557c99" d="M372.389 307.324c50.768-50.768 50.768-133.079 0-183.847L280.465 215.4z" opacity=".2" style="mix-blend-mode:multiply"/><path fill="#ebe6ef" d="M327.327 215.395c0 22.672-15.952 41.6-37.327 46.181h-6.729l.001-92.378H290c21.337 4.551 37.327 23.498 37.327 46.197"/><path fill="#a47dab" d="M290 85.4H65v260h225z"/><path fill="#ebe6ef" d="M75.426 85.4H30v260h45.426z"/><path fill="#ebe6ef" d="M30 345.4v-260h22.713v260z" opacity=".5" style="mix-blend-mode:multiply"/><path fill="#a47dab" d="M75.426 345.4v-260h20v260z" opacity=".5" style="mix-blend-mode:multiply"/><path fill="#ebe6ef" d="M310 178.826v73.121a47.2 47.2 0 0 1-20 9.629v-92.378a47.05 47.05 0 0 1 20 9.628" opacity=".5" style="mix-blend-mode:multiply"/><path fill="#557c99" d="M290 85.4a130.4 130.4 0 0 1 20 3.09v90.336a47.06 47.06 0 0 0-20-9.628zm0 260v-83.824a47.2 47.2 0 0 0 20-9.628v90.379a130 130 0 0 1-20 3.073" opacity=".5" style="mix-blend-mode:multiply"/><circle cx="135.308" cy="274.64" r="18.4515" fill="#f1c338"/><path fill="#f1c338" d="M148.169 287.87q-1.4.22-2.861.221c-10.191 0-18.452-8.261-18.452-18.452a18.4 18.4 0 0 1 5.591-13.231c-8.832 1.375-15.591 9.014-15.591 18.231 0 10.191 8.261 18.452 18.452 18.452 5.001 0 9.537-1.99 12.861-5.221" opacity=".5" style="mix-blend-mode:multiply"/><circle cx="202.546" cy="241.904" r="18.4515" fill="#f1c338"/><path fill="#f1c338" d="M215.407 255.135q-1.4.219-2.861.22c-10.19 0-18.451-8.261-18.451-18.451 0-5.19 2.142-9.879 5.591-13.231-8.832 1.375-15.591 9.013-15.591 18.231 0 10.19 8.261 18.451 18.451 18.451a18.4 18.4 0 0 0 12.861-5.22" opacity=".5" style="mix-blend-mode:multiply"/><path fill="#f1c338" d="m153.76 207.928 67.237-31.911v-38.388L153.76 169.54z"/><path fill="#f1c338" d="m163.76 164.794-10 4.746v38.388l10-4.746z" opacity=".5" style="mix-blend-mode:multiply"/><path stroke="#000" stroke-linecap="round" stroke-linejoin="round" stroke-miterlimit="10" stroke-width="7" d="M153.76 169.54v105.099m67.237-137.011v104.276m0-65.887-67.237 31.911m67.237-70.299L153.76 169.54"/><circle cx="135.308" cy="274.64" r="18.4515" stroke="#000" stroke-linejoin="round" stroke-width="7"/><circle cx="202.546" cy="241.904" r="18.4515" stroke="#000" stroke-linejoin="round" stroke-width="7"/><path stroke="#000" stroke-linecap="round" stroke-linejoin="round" stroke-miterlimit="10" stroke-width="7" d="M290 85.4H30v260h260zm0 176.176c21.375-4.581 37.326-23.509 37.326-46.181 0-22.698-15.99-41.645-37.326-46.197m0-83.798c67.356 5.116 120.464 61.333 120.464 129.995 0 68.703-53.062 124.945-120.464 130.005M75.426 85.4v260"/></g><defs><clipPath id="oC889kKtRha"><path fill="#fff" d="M0 0h430v430H0z"/></clipPath></defs></svg>